<?xml version="1.0" standalone="no"?>
<!DOCTYPE svg PUBLIC "-//W3C//DTD SVG 20010904//EN"
 "http://www.w3.org/TR/2001/REC-SVG-20010904/DTD/svg10.dtd">
<svg version="1.0" xmlns="http://www.w3.org/2000/svg"
 width="460.000000pt" height="460.000000pt" viewBox="0 0 460.000000 460.000000"
 preserveAspectRatio="xMidYMid meet">
<metadata>
Created by potrace 1.11, written by Peter Selinger 2001-2013
</metadata>
<g transform="translate(0.000000,460.000000) scale(0.100000,-0.100000)"
fill="#000000" stroke="none">
<path d="M3290 3292 c-8 -3 -26 -9 -40 -15 -32 -13 -36 -14 -60 -16 -11 0 -29
-11 -41 -23 -63 -70 -98 -101 -131 -118 -20 -11 -46 -32 -58 -47 -21 -27 -143
-87 -154 -76 -3 3 -13 0 -22 -8 -9 -8 -22 -14 -28 -14 -17 0 -86 -36 -86 -45
0 -4 -15 -13 -32 -20 -150 -56 -177 -63 -191 -51 -14 11 -75 12 -82 1 -7 -12
-109 1 -125 16 -12 11 -12 20 -2 47 7 18 12 37 12 41 0 13 -45 24 -66 16 -16
-6 -29 -1 -54 20 -19 16 -61 44 -95 61 -55 30 -68 33 -159 34 -55 0 -120 -3
-146 -9 -36 -7 -57 -6 -96 8 -43 15 -50 15 -60 1 -8 -10 -23 -13 -51 -11 -23
3 -52 -2 -67 -9 -27 -14 -80 -11 -102 7 -16 12 -124 39 -143 36 -9 -1 -22 1
-28 5 -7 4 -21 3 -31 -2 -11 -6 -22 -7 -26 -4 -3 4 -36 6 -72 5 -54 -1 -65 1
-60 13 3 8 1 15 -4 15 -5 0 -6 16 -3 36 7 42 -5 54 -53 54 -37 0 -66 -26 -40
-36 21 -8 21 -30 -1 -42 -11 -7 -14 -15 -8 -28 4 -11 10 -39 12 -64 8 -79 77
-176 117 -164 10 4 16 2 13 -3 -3 -5 12 -26 33 -47 31 -30 39 -43 34 -62 -7
-28 16 -40 86 -43 36 -1 50 -8 72 -32 23 -26 32 -30 55 -24 75 20 97 12 100
-37 2 -18 4 -57 7 -85 3 -56 21 -87 42 -79 7 3 16 1 19 -4 4 -6 16 -10 29 -10
12 0 26 -3 30 -7 4 -5 11 -8 14 -9 4 0 25 -4 47 -9 22 -5 46 -8 52 -7 7 2 23
-7 35 -18 17 -16 31 -20 55 -15 18 3 34 1 38 -5 8 -12 72 -41 100 -44 12 -1
26 -6 33 -10 7 -4 12 -4 12 0 0 4 8 0 18 -8 19 -17 160 -60 172 -53 4 2 15 -4
24 -14 10 -11 34 -22 54 -26 20 -4 42 -11 48 -16 7 -5 23 -12 35 -16 40 -9
202 -9 245 0 25 6 52 6 69 0 26 -8 128 2 205 21 14 4 54 8 90 10 35 2 66 9 68
15 2 6 13 11 23 11 35 0 178 68 180 85 1 5 2 21 2 35 2 23 5 25 57 25 82 1
163 -15 180 -34 8 -9 29 -22 45 -29 17 -7 51 -32 77 -57 63 -59 131 -90 191
-86 21 1 23 34 3 54 -22 21 -13 68 19 101 22 22 26 32 18 45 -5 9 -8 30 -6 47
3 24 -1 33 -14 36 -11 3 -19 15 -20 29 -1 14 -18 37 -40 56 -31 27 -34 33 -18
33 11 0 31 7 44 14 19 11 31 11 49 3 21 -10 27 -8 43 12 11 13 19 36 19 52 0
16 7 46 15 65 13 32 13 39 0 64 -8 16 -15 36 -15 44 0 8 -9 18 -20 21 -11 3
-20 14 -20 24 0 9 -5 22 -11 28 -8 8 -2 13 21 18 23 5 36 2 51 -11 15 -13 24
-15 42 -7 22 10 77 101 77 127 0 7 9 21 20 31 25 23 21 39 -11 42 -108 8 -143
14 -158 27 -10 9 -33 19 -52 23 -36 7 -106 39 -114 53 -3 5 -29 11 -58 15 -28
4 -59 13 -67 20 -15 12 -179 18 -210 7z m-1715 -496 c9 -9 24 -16 33 -16 9 -1
28 -8 42 -16 l25 -15 -30 6 c-16 4 -46 9 -65 12 -34 5 -70 28 -70 44 0 13 48
3 65 -15z"/>
<path d="M632 2485 c-28 -9 -44 -9 -51 -2 -14 14 -91 -11 -99 -32 -3 -9 -10
-19 -15 -22 -5 -4 -17 -25 -27 -47 -15 -34 -16 -43 -5 -52 7 -6 16 -27 20 -48
10 -55 33 -104 45 -97 5 3 10 2 10 -4 0 -22 51 -59 89 -66 21 -3 47 -13 58
-20 10 -8 25 -15 34 -15 23 0 50 -23 53 -45 2 -11 12 -20 27 -22 14 -2 43 -12
64 -23 22 -11 51 -20 65 -20 14 0 42 -5 63 -11 31 -8 36 -13 27 -24 -7 -8 -9
-19 -5 -25 3 -5 -2 -10 -12 -11 -186 -10 -182 -10 -193 12 -9 15 -15 18 -25 9
-9 -8 -27 -5 -69 10 -30 12 -58 26 -61 31 -4 5 -13 9 -22 9 -10 0 -13 -5 -8
-17 4 -10 8 -27 11 -37 2 -11 10 -23 17 -28 8 -4 20 -20 26 -36 7 -16 34 -46
61 -66 27 -21 52 -45 54 -54 3 -10 24 -28 46 -42 22 -14 40 -28 40 -32 0 -4 9
-9 19 -13 10 -3 22 -17 25 -30 5 -18 13 -25 32 -25 13 0 46 -11 72 -24 48 -23
110 -37 193 -41 25 -1 50 -4 55 -8 6 -3 16 -2 23 2 7 5 28 0 49 -10 44 -23 78
-24 127 -3 20 8 51 16 69 18 62 6 73 19 75 90 1 36 -3 67 -9 71 -14 9 -13 58
2 73 21 21 49 13 91 -28 28 -28 46 -38 59 -34 12 3 18 0 18 -10 0 -8 20 -34
45 -57 24 -23 43 -44 43 -48 -3 -8 23 -83 32 -96 4 -5 6 -24 5 -42 -3 -27 3
-37 33 -60 44 -33 120 -56 184 -54 33 1 59 -6 92 -24 46 -25 110 -33 121 -15
4 6 23 10 43 9 40 -3 112 17 112 31 0 8 46 28 70 29 86 5 129 9 138 15 6 3 13
2 17 -4 5 -9 52 -5 85 7 8 3 24 8 34 10 11 2 25 8 32 14 7 6 17 8 22 5 6 -3
27 -8 48 -11 74 -9 174 -29 174 -35 0 -13 115 -17 164 -7 18 4 40 0 59 -9 29
-15 115 -16 172 -1 11 3 27 7 35 9 8 1 34 15 57 31 23 15 47 27 53 27 6 0 13
7 16 15 4 8 9 13 13 11 3 -2 15 2 25 10 18 13 18 15 2 39 -19 28 -51 44 -99
48 -25 2 -32 8 -39 34 -6 24 -15 33 -38 38 -25 6 -30 11 -30 36 0 40 -27 79
-66 95 -30 13 -32 16 -24 45 6 19 5 39 -2 54 -8 17 -8 28 0 37 12 15 -3 79
-31 138 -9 19 -21 53 -27 75 -13 53 -44 87 -75 81 -12 -2 -42 0 -65 5 -31 7
-46 6 -58 -3 -8 -7 -17 -12 -19 -10 -1 1 -6 1 -10 1 -11 -2 -77 -8 -143 -12
-31 -2 -66 -9 -78 -16 -12 -6 -22 -9 -22 -6 0 3 -9 1 -21 -5 -11 -6 -41 -13
-66 -16 -25 -2 -51 -8 -57 -13 -6 -4 -23 -6 -39 -4 -15 2 -35 -1 -45 -6 -12
-6 -23 -5 -36 4 -10 8 -28 11 -39 9 -12 -3 -39 -8 -59 -11 -27 -4 -38 -11 -38
-23 0 -43 -58 -48 -89 -8 -17 20 -27 25 -56 21 -24 -2 -35 1 -35 9 0 10 -19
13 -71 11 l-72 -2 -36 40 c-22 24 -46 41 -61 42 -32 2 -64 31 -57 51 7 18 -7
30 -58 47 -22 8 -51 22 -65 31 -14 10 -35 20 -48 23 -12 3 -32 7 -44 10 -12 2
-25 0 -28 -5 -9 -15 -110 17 -110 35 0 23 -30 45 -61 45 -16 0 -29 5 -29 11 0
8 -13 9 -39 5 -22 -3 -42 -2 -46 3 -3 6 -22 4 -48 -4 -23 -8 -62 -19 -86 -26
-28 -9 -46 -20 -49 -32 -4 -17 -11 -19 -55 -14 -27 4 -54 11 -61 16 -6 5 -33
12 -60 16 -27 4 -65 19 -85 32 -30 20 -43 23 -80 18 -46 -7 -98 8 -118 34 -10
14 -14 14 -32 -3 -12 -11 -21 -27 -21 -38 0 -24 -27 -23 -35 2 -3 11 -11 20
-16 20 -5 0 -7 11 -4 23 7 28 -3 29 -63 12z m-135 -267 c-3 -8 -6 -5 -6 6 -1
11 2 17 5 13 3 -3 4 -12 1 -19z"/>
</g>
</svg>
